<?xml version="1.0" encoding="utf-8"?>
<!-- Generator: Adobe Illustrator 27.3.1, SVG Export Plug-In . SVG Version: 6.00 Build 0)  -->
<svg version="1.1" id="Слой_1" xmlns="http://www.w3.org/2000/svg" xmlns:xlink="http://www.w3.org/1999/xlink" x="0px" y="0px"
	 viewBox="0 0 311.81 34.02" style="enable-background:new 0 0 311.81 34.02;" xml:space="preserve">
<style type="text/css">
	.st0{fill:#008D36;}
	.st1{fill:#008D36;stroke:#000000;stroke-width:0.25;stroke-miterlimit:10;}
</style>
<g>
	<path class="st0" d="M17.15,13.94c0.36,0,0.63,0.31,0.63,0.73v2.1c0,0.42-0.27,0.73-0.63,0.73H1.9c-0.36,0-0.63-0.31-0.63-0.73
		v-2.1c0-0.42,0.27-0.73,0.63-0.73h0.99l1.17-5.67c0.7-3.36,2.51-5.46,6.1-5.46h5.2c0.36,0,0.63,0.31,0.63,0.73v10.39H17.15z
		 M12.04,6.39h-1.88c-1.17,0-1.83,0.73-2.06,1.89l-1.17,5.67h5.11V6.39z"/>
	<path class="st0" d="M32.42,16.78c0,0.42-0.27,0.73-0.63,0.73H29.1c-0.36,0-0.63-0.31-0.63-0.73V6.39h-2.15
		c-1.17,0-1.81,0.73-2.06,1.89l-1.79,8.5c-0.09,0.42-0.36,0.73-0.7,0.73h-2.71c-0.45,0-0.72-0.34-0.63-0.73l1.79-8.5
		c0.72-3.36,2.51-5.46,6.1-5.46h5.47c0.36,0,0.63,0.31,0.63,0.73V16.78z"/>
	<path class="st0" d="M44.26,9.11l-4.49,7.66c-0.18,0.31-0.54,0.73-0.99,0.73h-3.05c-0.36,0-0.63-0.31-0.63-0.73V3.55
		c0-0.42,0.27-0.73,0.63-0.73h2.69c0.36,0,0.63,0.31,0.63,0.73v7.66h0.18l4.49-7.66c0.18-0.31,0.54-0.73,0.99-0.73h3.05
		c0.36,0,0.63,0.31,0.63,0.73v13.23c0,0.42-0.27,0.73-0.63,0.73h-2.69c-0.36,0-0.63-0.31-0.63-0.73V9.11H44.26z"/>
	<path class="st0" d="M64.17,16.78c0,0.42-0.27,0.73-0.63,0.73h-2.69c-0.36,0-0.63-0.31-0.63-0.73v-4.72h-5.2v4.72
		c0,0.42-0.27,0.73-0.63,0.73H51.7c-0.36,0-0.63-0.31-0.63-0.73V3.55c0-0.42,0.27-0.73,0.63-0.73h2.69c0.36,0,0.63,0.31,0.63,0.73
		v4.93h5.2V3.55c0-0.42,0.27-0.73,0.63-0.73h2.69c0.36,0,0.63,0.31,0.63,0.73V16.78z"/>
	<path class="st0" d="M79.96,16.78c0,0.42-0.27,0.73-0.63,0.73h-2.69c-0.36,0-0.63-0.31-0.63-0.73v-4.72h-5.2v4.72
		c0,0.42-0.27,0.73-0.63,0.73h-2.69c-0.36,0-0.63-0.31-0.63-0.73V3.55c0-0.42,0.27-0.73,0.63-0.73h2.69c0.36,0,0.63,0.31,0.63,0.73
		v4.93h5.2V3.55c0-0.42,0.27-0.73,0.63-0.73h2.69c0.36,0,0.63,0.31,0.63,0.73V16.78z"/>
	<path class="st0" d="M96.82,10.16c0,4.72-2.6,7.77-7.36,7.77c-4.75,0-7.36-3.04-7.36-7.77s2.6-7.77,7.36-7.77
		C94.22,2.4,96.82,5.44,96.82,10.16z M92.7,10.16c0-2.83-1.26-4.3-3.23-4.3c-1.97,0-3.23,1.47-3.23,4.3s1.26,4.3,3.23,4.3
		C91.44,14.47,92.7,13,92.7,10.16z"/>
	<path class="st0" d="M106.51,17.51H99.6c-0.36,0-0.63-0.31-0.63-0.73V3.55c0-0.42,0.27-0.73,0.63-0.73h10.77
		c0.36,0,0.63,0.31,0.63,0.73v2.1c0,0.42-0.27,0.73-0.63,0.73h-7.45v1.68h3.59c3.77,0,5.56,2.1,5.56,4.72S110.28,17.51,106.51,17.51
		z M102.92,11.42v2.73h3.59c0.9,0,1.44-0.63,1.44-1.36s-0.54-1.36-1.44-1.36H102.92z"/>
	<path class="st0" d="M128.13,10.16c0,4.72-2.6,7.77-7.36,7.77s-7.36-3.04-7.36-7.77s2.6-7.77,7.36-7.77S128.13,5.44,128.13,10.16z
		 M124,10.16c0-2.83-1.26-4.3-3.23-4.3c-1.97,0-3.23,1.47-3.23,4.3s1.26,4.3,3.23,4.3C122.74,14.47,124,13,124,10.16z"/>
	<path class="st0" d="M137.18,13.52h-2.96v3.25c0,0.42-0.27,0.73-0.63,0.73h-2.69c-0.36,0-0.63-0.31-0.63-0.73V3.55
		c0-0.42,0.27-0.73,0.63-0.73h6.28c4.22,0,6.19,2.31,6.19,5.35S141.4,13.52,137.18,13.52z M137.18,10.16c1.35,0,2.06-0.84,2.06-1.99
		s-0.72-1.99-2.06-1.99h-2.96v3.99H137.18z"/>
	<path class="st0" d="M156.65,5.65c0,0.42-0.27,0.73-0.63,0.73h-3.77v10.39c0,0.42-0.27,0.73-0.63,0.73h-2.69
		c-0.36,0-0.63-0.31-0.63-0.73V6.39h-3.77c-0.36,0-0.63-0.31-0.63-0.73v-2.1c0-0.42,0.27-0.73,0.63-0.73h11.48
		c0.36,0,0.63,0.31,0.63,0.73V5.65z"/>
	<path class="st0" d="M172.08,10.16c0,4.72-2.6,7.77-7.36,7.77c-4.75,0-7.36-3.04-7.36-7.77s2.6-7.77,7.36-7.77
		C169.48,2.4,172.08,5.44,172.08,10.16z M167.95,10.16c0-2.83-1.26-4.3-3.23-4.3c-1.97,0-3.23,1.47-3.23,4.3s1.26,4.3,3.23,4.3
		C166.69,14.47,167.95,13,167.95,10.16z"/>
	<path class="st0" d="M184.81,9.64v0.21c0,0,2.69,0.63,2.69,3.36c0,2.31-1.71,4.3-5.47,4.3h-7.18c-0.36,0-0.63-0.31-0.63-0.73V3.55
		c0-0.42,0.27-0.73,0.63-0.73h6.46c3.68,0,5.29,1.89,5.29,4.09C186.61,9.01,184.81,9.64,184.81,9.64z M178.17,6.18v2.1h3.14
		c0.81,0,1.17-0.42,1.17-1.05s-0.34-1.05-1.17-1.05H178.17z M178.17,11.63v2.52h3.86c0.9,0,1.35-0.52,1.35-1.26
		s-0.45-1.26-1.35-1.26H178.17z"/>
	<path class="st0" d="M198.59,14.89h-5.65l-0.63,1.89c-0.14,0.42-0.45,0.73-0.81,0.73h-2.87c-0.36,0-0.61-0.31-0.45-0.73l5.02-13.23
		c0.16-0.42,0.45-0.73,0.81-0.73h3.68c0.36,0,0.65,0.29,0.81,0.71l5.02,13.25c0.16,0.42-0.09,0.73-0.45,0.73h-3.05
		c-0.36,0-0.66-0.31-0.81-0.73L198.59,14.89z M194.19,11.42h3.14l-1.44-4.2h-0.18L194.19,11.42z"/>
	<path class="st0" d="M204.65,7.86c0-2.83,1.88-5.04,5.92-5.04h6.37c0.36,0,0.63,0.31,0.63,0.73v13.23c0,0.42-0.27,0.73-0.63,0.73
		h-2.69c-0.36,0-0.63-0.31-0.63-0.73v-3.88h-2.42l-2.51,3.88c-0.2,0.31-0.54,0.73-1.17,0.73h-3.05c-0.45,0-0.65-0.42-0.45-0.73
		l3.23-4.93v-0.21C207.25,11.63,204.65,11,204.65,7.86z M213.62,9.53V6.18h-3.05c-1.17,0-1.79,0.73-1.79,1.68s0.63,1.68,1.79,1.68
		H213.62z"/>
	<path class="st0" d="M237.12,5.65c0,0.42-0.27,0.73-0.63,0.73h-6.73v10.39c0,0.42-0.27,0.73-0.63,0.73h-2.69
		c-0.36,0-0.63-0.31-0.63-0.73V3.55c0-0.42,0.27-0.73,0.63-0.73h10.05c0.36,0,0.63,0.31,0.63,0.73V5.65z"/>
	<path class="st0" d="M246.33,14.89h-5.65l-0.63,1.89c-0.14,0.42-0.45,0.73-0.81,0.73h-2.87c-0.36,0-0.61-0.31-0.45-0.73l5.02-13.23
		c0.16-0.42,0.45-0.73,0.81-0.73h3.68c0.36,0,0.65,0.29,0.81,0.71l5.02,13.25c0.16,0.42-0.09,0.73-0.45,0.73h-3.05
		c-0.36,0-0.66-0.31-0.81-0.73L246.33,14.89z M241.93,11.42h3.14l-1.44-4.2h-0.18L241.93,11.42z"/>
	<path class="st0" d="M251.76,13.31c0-0.52,0.27-0.84,0.72-0.84h2.24c0.54,0,0.84,0.38,1.08,0.84c0.27,0.52,0.9,1.15,2.6,1.15
		c1.79,0,2.42-0.73,2.42-1.36c0-0.73-0.54-1.36-1.44-1.36h-2.33c-0.36,0-0.63-0.31-0.63-0.73V8.9c0-0.42,0.27-0.73,0.63-0.73h2.15
		c0.81,0,1.26-0.52,1.26-1.15c0-0.52-0.54-1.15-2.06-1.15c-1.44,0-1.97,0.63-2.15,0.94c-0.29,0.52-0.54,0.84-1.08,0.84h-2.24
		c-0.45,0-0.72-0.31-0.72-0.84c0-2.1,1.97-4.41,6.19-4.41c4.4,0,6.19,2.1,6.19,4.3c0,2.31-2.24,2.94-2.24,2.94v0.21
		c0,0,2.6,0.63,2.6,3.57c0,2.31-1.88,4.51-6.55,4.51C253.73,17.93,251.76,15.62,251.76,13.31z"/>
	<path class="st0" d="M279.3,5.65c0,0.42-0.27,0.73-0.63,0.73h-7.63v1.89h5.65c0.36,0,0.63,0.31,0.63,0.73v2.1
		c0,0.42-0.27,0.73-0.63,0.73h-5.65v2.1h7.63c0.36,0,0.63,0.31,0.63,0.73v2.1c0,0.42-0.27,0.73-0.63,0.73h-10.95
		c-0.36,0-0.63-0.31-0.63-0.73V3.55c0-0.42,0.27-0.73,0.63-0.73h10.95c0.36,0,0.63,0.31,0.63,0.73V5.65z"/>
	<path class="st0" d="M294.3,16.78c0,0.42-0.27,0.73-0.63,0.73h-2.69c-0.36,0-0.63-0.31-0.63-0.73V6.39h-2.15
		c-1.17,0-1.81,0.73-2.06,1.89l-1.79,8.5c-0.09,0.42-0.36,0.73-0.7,0.73h-2.71c-0.45,0-0.72-0.34-0.63-0.73l1.79-8.5
		c0.72-3.36,2.51-5.46,6.1-5.46h5.47c0.36,0,0.63,0.31,0.63,0.73V16.78z"/>
	<path class="st0" d="M303.89,17.51h-6.28c-0.36,0-0.63-0.31-0.63-0.73V3.55c0-0.42,0.27-0.73,0.63-0.73h2.69
		c0.36,0,0.63,0.31,0.63,0.73v3.67h2.96c4.13,0,6.01,2.2,6.01,5.14S308.02,17.51,303.89,17.51z M303.89,10.58h-2.96v3.57h2.96
		c1.26,0,1.88-0.73,1.88-1.78S305.15,10.58,303.89,10.58z"/>
</g>
<g>
	<path class="st0" d="M13.95,32.21c0,0.28-0.24,0.49-0.55,0.49h-2.36c-0.31,0-0.55-0.21-0.55-0.49v-6.93H5.92v6.93
		c0,0.28-0.24,0.49-0.55,0.49H3.01c-0.31,0-0.55-0.21-0.55-0.49v-8.82c0-0.28,0.24-0.49,0.55-0.49H13.4c0.31,0,0.55,0.21,0.55,0.49
		V32.21z"/>
	<path class="st0" d="M28.75,27.8c0,3.15-2.28,5.18-6.46,5.18c-4.17,0-6.46-2.03-6.46-5.18s2.28-5.18,6.46-5.18
		C26.47,22.61,28.75,24.64,28.75,27.8z M25.13,27.8c0-1.89-1.1-2.87-2.83-2.87c-1.73,0-2.83,0.98-2.83,2.87s1.1,2.87,2.83,2.87
		C24.03,30.67,25.13,29.69,25.13,27.8z"/>
	<path class="st0" d="M43.08,30.32c0.31,0,0.55,0.21,0.55,0.49v1.4c0,0.28-0.24,0.49-0.55,0.49H29.69c-0.31,0-0.55-0.21-0.55-0.49
		v-1.4c0-0.28,0.24-0.49,0.55-0.49h0.87l1.02-3.78c0.61-2.24,2.2-3.64,5.35-3.64h4.57c0.31,0,0.55,0.21,0.55,0.49v6.93H43.08z
		 M38.59,25.27h-1.65c-1.02,0-1.61,0.49-1.81,1.26l-1.02,3.78h4.49V25.27z"/>
	<path class="st0" d="M51.66,32.7H45.6c-0.32,0-0.55-0.21-0.55-0.49v-8.82c0-0.28,0.24-0.49,0.55-0.49h9.45
		c0.31,0,0.55,0.21,0.55,0.49v1.4c0,0.28-0.24,0.49-0.55,0.49h-6.54v1.12h3.15c3.31,0,4.88,1.4,4.88,3.15S54.97,32.7,51.66,32.7z
		 M48.51,28.64v1.82h3.15c0.79,0,1.26-0.42,1.26-0.91s-0.47-0.91-1.26-0.91H48.51z"/>
	<path class="st0" d="M68.9,24.78c0,0.28-0.24,0.49-0.55,0.49h-6.69v1.26h4.96c0.31,0,0.55,0.21,0.55,0.49v1.4
		c0,0.28-0.24,0.49-0.55,0.49h-4.96v1.4h6.69c0.31,0,0.55,0.21,0.55,0.49v1.4c0,0.28-0.24,0.49-0.55,0.49h-9.61
		c-0.31,0-0.55-0.21-0.55-0.49v-8.82c0-0.28,0.24-0.49,0.55-0.49h9.61c0.31,0,0.55,0.21,0.55,0.49V24.78z"/>
	<path class="st0" d="M76.69,30.04h-2.6v2.17c0,0.28-0.24,0.49-0.55,0.49h-2.36c-0.31,0-0.55-0.21-0.55-0.49v-8.82
		c0-0.28,0.24-0.49,0.55-0.49h5.51c3.7,0,5.43,1.54,5.43,3.57S80.39,30.04,76.69,30.04z M76.69,27.8c1.18,0,1.81-0.56,1.81-1.33
		s-0.63-1.33-1.81-1.33h-2.6v2.66H76.69z"/>
	<path class="st0" d="M94.41,24.78c0,0.28-0.24,0.49-0.55,0.49h-6.69v1.26h4.96c0.32,0,0.55,0.21,0.55,0.49v1.4
		c0,0.28-0.24,0.49-0.55,0.49h-4.96v1.4h6.69c0.31,0,0.55,0.21,0.55,0.49v1.4c0,0.28-0.24,0.49-0.55,0.49h-9.61
		c-0.32,0-0.55-0.21-0.55-0.49v-8.82c0-0.28,0.24-0.49,0.55-0.49h9.61c0.31,0,0.55,0.21,0.55,0.49V24.78z"/>
	<path class="st0" d="M102.75,32.7c-0.47,0-0.77-0.28-0.87-0.49l-2.13-4.62H99.6v4.62c0,0.28-0.24,0.49-0.55,0.49h-2.36
		c-0.32,0-0.55-0.21-0.55-0.49v-8.82c0-0.28,0.24-0.49,0.55-0.49h3.31c0.47,0,0.77,0.28,0.87,0.49l2.76,5.95h0.16l2.76-5.95
		c0.09-0.21,0.39-0.49,0.87-0.49h3.31c0.31,0,0.55,0.21,0.55,0.49v8.82c0,0.28-0.24,0.49-0.55,0.49h-2.36
		c-0.31,0-0.55-0.21-0.55-0.49v-4.62h-0.16l-2.11,4.62c-0.09,0.21-0.39,0.49-0.87,0.49H102.75z"/>
	<path class="st0" d="M129.99,32.21c0,0.28-0.24,0.49-0.55,0.49h-2.36c-0.31,0-0.55-0.21-0.55-0.49v-6.93h-4.57v6.93
		c0,0.28-0.24,0.49-0.55,0.49h-2.36c-0.31,0-0.55-0.21-0.55-0.49v-8.82c0-0.28,0.24-0.49,0.55-0.49h10.39
		c0.31,0,0.55,0.21,0.55,0.49V32.21z"/>
	<path class="st0" d="M144.79,27.8c0,3.15-2.28,5.18-6.46,5.18c-4.17,0-6.46-2.03-6.46-5.18s2.28-5.18,6.46-5.18
		C142.51,22.61,144.79,24.64,144.79,27.8z M141.17,27.8c0-1.89-1.1-2.87-2.83-2.87c-1.73,0-2.83,0.98-2.83,2.87s1.1,2.87,2.83,2.87
		C140.06,30.67,141.17,29.69,141.17,27.8z"/>
	<path class="st0" d="M159.12,30.32c0.31,0,0.55,0.21,0.55,0.49v1.4c0,0.28-0.24,0.49-0.55,0.49h-13.38c-0.31,0-0.55-0.21-0.55-0.49
		v-1.4c0-0.28,0.24-0.49,0.55-0.49h0.87l1.02-3.78c0.61-2.24,2.2-3.64,5.35-3.64h4.57c0.31,0,0.55,0.21,0.55,0.49v6.93H159.12z
		 M154.63,25.27h-1.65c-1.02,0-1.61,0.49-1.81,1.26l-1.02,3.78h4.49V25.27z"/>
	<path class="st0" d="M175.25,27.44v0.14c0,0,2.36,0.42,2.36,2.24c0,1.54-1.5,2.87-4.8,2.87h-6.3c-0.31,0-0.55-0.21-0.55-0.49v-8.82
		c0-0.28,0.24-0.49,0.55-0.49h5.67c3.23,0,4.65,1.26,4.65,2.73C176.83,27.02,175.25,27.44,175.25,27.44z M169.43,25.13v1.4h2.76
		c0.71,0,1.02-0.28,1.02-0.7c0-0.42-0.3-0.7-1.02-0.7H169.43z M169.43,28.78v1.68h3.39c0.79,0,1.18-0.35,1.18-0.84
		s-0.39-0.84-1.18-0.84H169.43z"/>
	<path class="st0" d="M187.35,30.95h-4.96l-0.55,1.26c-0.13,0.28-0.39,0.49-0.71,0.49h-2.52c-0.32,0-0.54-0.21-0.39-0.49l4.41-8.82
		c0.14-0.28,0.39-0.49,0.71-0.49h3.23c0.31,0,0.57,0.2,0.71,0.48l4.41,8.84c0.14,0.28-0.08,0.49-0.39,0.49h-2.68
		c-0.31,0-0.58-0.21-0.71-0.49L187.35,30.95z M183.49,28.64h2.75l-1.26-2.8h-0.16L183.49,28.64z"/>
	<path class="st0" d="M209.59,32.21c0,0.28-0.24,0.49-0.55,0.49h-15.59c-0.32,0-0.55-0.21-0.55-0.49v-8.82
		c0-0.28,0.24-0.49,0.55-0.49h2.36c0.32,0,0.55,0.21,0.55,0.49v6.93h3.15v-6.93c0-0.28,0.24-0.49,0.55-0.49h2.36
		c0.31,0,0.55,0.21,0.55,0.49v6.93h3.15v-6.93c0-0.28,0.24-0.49,0.55-0.49h2.36c0.32,0,0.55,0.21,0.55,0.49V32.21z"/>
	<path class="st0" d="M219.98,27.09l-3.94,5.11c-0.16,0.21-0.47,0.49-0.87,0.49h-2.68c-0.31,0-0.55-0.21-0.55-0.49v-8.82
		c0-0.28,0.24-0.49,0.55-0.49h2.36c0.31,0,0.55,0.21,0.55,0.49v5.11h0.16l3.94-5.11c0.16-0.21,0.47-0.49,0.87-0.49h2.68
		c0.31,0,0.55,0.21,0.55,0.49v8.82c0,0.28-0.24,0.49-0.55,0.49h-2.36c-0.31,0-0.55-0.21-0.55-0.49v-5.11H219.98z"/>
	<path class="st0" d="M242.34,32.21c0,0.28-0.24,0.49-0.55,0.49h-2.36c-0.32,0-0.55-0.21-0.55-0.49v-3.15h-4.57v3.15
		c0,0.28-0.24,0.49-0.55,0.49h-2.36c-0.31,0-0.55-0.21-0.55-0.49v-8.82c0-0.28,0.24-0.49,0.55-0.49h2.36c0.31,0,0.55,0.21,0.55,0.49
		v3.29h4.57v-3.29c0-0.28,0.24-0.49,0.55-0.49h2.36c0.31,0,0.55,0.21,0.55,0.49V32.21z"/>
	<path class="st0" d="M252.62,23.38c0.11-0.28,0.39-0.49,0.79-0.49h2.28c0.39,0,0.58,0.21,0.47,0.49l-2.6,6.23
		c-0.79,1.89-2.13,3.08-4.72,3.08h-1.97c-0.32,0-0.55-0.21-0.55-0.49v-1.54c0-0.28,0.24-0.49,0.55-0.49h0.71
		c0.31,0,0.79,0.14,1.1,0.14h0.16c0.63,0,1.05-0.35,1.18-0.7l0.08-0.21h-0.39c-2.6,0-3.86-1.12-4.8-3.15l-1.34-2.87
		c-0.13-0.28,0.08-0.49,0.47-0.49h2.36c0.39,0,0.66,0.21,0.79,0.49l1.34,2.87c0.24,0.49,0.63,0.84,1.26,0.84h1.26L252.62,23.38z"/>
	<path class="st0" d="M260.34,27.51c0,0-1.04-0.28-1.89-1.68l-1.5-2.45c-0.13-0.21,0-0.49,0.39-0.49h2.44
		c0.63,0,0.85,0.21,1.02,0.49l1.5,2.45c0.25,0.42,0.55,0.7,1.42,0.7h0.55v-3.15c0-0.28,0.24-0.49,0.55-0.49h2.36
		c0.31,0,0.55,0.21,0.55,0.49v3.15h0.55c0.87,0,1.17-0.28,1.42-0.7l1.5-2.45c0.17-0.28,0.39-0.49,1.02-0.49h2.44
		c0.39,0,0.52,0.28,0.39,0.49l-1.5,2.45c-0.85,1.4-1.89,1.68-1.89,1.68v0.14c0,0,1.1,0.28,2.13,1.96l1.58,2.59
		c0.13,0.21,0,0.49-0.39,0.49h-2.44c-0.63,0-0.85-0.21-1.02-0.49l-1.57-2.59c-0.25-0.42-0.55-0.7-1.42-0.7h-0.79v3.29
		c0,0.28-0.24,0.49-0.55,0.49h-2.36c-0.31,0-0.55-0.21-0.55-0.49v-3.29h-0.79c-0.87,0-1.17,0.28-1.42,0.7l-1.57,2.59
		c-0.17,0.28-0.39,0.49-1.02,0.49h-2.44c-0.39,0-0.52-0.28-0.39-0.49l1.58-2.59c1.02-1.68,2.12-1.96,2.12-1.96V27.51z"/>
	<path class="st0" d="M289.59,30.32c0.31,0,0.55,0.21,0.55,0.49v1.4c0,0.28-0.24,0.49-0.55,0.49h-13.38c-0.32,0-0.55-0.21-0.55-0.49
		v-1.4c0-0.28,0.24-0.49,0.55-0.49h0.87l1.02-3.78c0.61-2.24,2.2-3.64,5.35-3.64h4.57c0.32,0,0.55,0.21,0.55,0.49v6.93H289.59z
		 M285.1,25.27h-1.65c-1.02,0-1.61,0.49-1.81,1.26l-1.02,3.78h4.49V25.27z"/>
	<path class="st0" d="M297.31,32.7h-5.2c-0.32,0-0.55-0.21-0.55-0.49v-8.82c0-0.28,0.24-0.49,0.55-0.49h2.36
		c0.32,0,0.55,0.21,0.55,0.49v2.45h2.28c3.62,0,5.28,1.47,5.28,3.43S300.93,32.7,297.31,32.7z M297.31,28.08h-2.28v2.38h2.28
		c1.1,0,1.65-0.49,1.65-1.19S298.41,28.08,297.31,28.08z M307.46,32.21c0,0.28-0.24,0.49-0.55,0.49h-2.36
		c-0.31,0-0.55-0.21-0.55-0.49v-8.82c0-0.28,0.24-0.49,0.55-0.49h2.36c0.32,0,0.55,0.21,0.55,0.49V32.21z"/>
</g>
<line class="st1" x1="1.27" y1="20.24" x2="310.26" y2="20.24"/>
<line class="st1" x1="1.27" y1="20.24" x2="310.26" y2="20.24"/>
<line class="st1" x1="1.27" y1="20.24" x2="310.26" y2="20.24"/>
</svg>
