<?xml version="1.0" encoding="utf-8"?>
<!-- Generator: Adobe Illustrator 27.3.1, SVG Export Plug-In . SVG Version: 6.00 Build 0)  -->
<svg version="1.1" id="Слой_1" xmlns="http://www.w3.org/2000/svg" xmlns:xlink="http://www.w3.org/1999/xlink" x="0px" y="0px"
	 viewBox="0 0 311.81 34.02" style="enable-background:new 0 0 311.81 34.02;" xml:space="preserve">
<style type="text/css">
	.st0{fill:#008D36;}
	.st1{fill:#008D36;stroke:#000000;stroke-width:0.25;stroke-miterlimit:10;}
</style>
<g>
	<path class="st0" d="M14.06,4.82c0,0.42-0.26,0.73-0.61,0.73H6.92v10.39c0,0.42-0.26,0.73-0.61,0.73H3.7
		c-0.35,0-0.61-0.31-0.61-0.73V2.72c0-0.42,0.26-0.73,0.61-0.73h9.76c0.35,0,0.61,0.31,0.61,0.73V4.82z"/>
	<path class="st0" d="M22.25,12.7h-2.88v3.25c0,0.42-0.26,0.73-0.61,0.73h-2.61c-0.35,0-0.61-0.31-0.61-0.73V2.72
		c0-0.42,0.26-0.73,0.61-0.73h6.1c4.1,0,6.01,2.31,6.01,5.35S26.35,12.7,22.25,12.7z M22.25,9.34c1.31,0,2-0.84,2-1.99
		s-0.7-1.99-2-1.99h-2.88v3.99H22.25z"/>
	<path class="st0" d="M38.77,2.72c0.12-0.42,0.44-0.73,0.87-0.73h2.53c0.44,0,0.65,0.31,0.52,0.73l-2.88,9.34
		c-0.87,2.83-2.35,4.62-5.23,4.62h-2.18c-0.35,0-0.61-0.31-0.61-0.73v-2.31c0-0.42,0.26-0.73,0.61-0.73h0.78
		c0.35,0,0.87,0.21,1.22,0.21h0.17c0.7,0,1.17-0.52,1.31-1.05l0.09-0.31h-0.44c-2.88,0-4.27-1.68-5.31-4.72l-1.48-4.3
		c-0.14-0.42,0.09-0.73,0.52-0.73h2.61c0.44,0,0.73,0.31,0.87,0.73l1.48,4.3c0.26,0.73,0.7,1.26,1.39,1.26h1.39L38.77,2.72z"/>
	<path class="st0" d="M43.34,12.49c0-0.52,0.26-0.84,0.7-0.84h2.18c0.52,0,0.82,0.38,1.05,0.84c0.26,0.52,0.87,1.15,2.53,1.15
		c1.74,0,2.35-0.73,2.35-1.36c0-0.73-0.52-1.36-1.39-1.36h-2.27c-0.35,0-0.61-0.31-0.61-0.73v-2.1c0-0.42,0.26-0.73,0.61-0.73h2.09
		c0.78,0,1.22-0.52,1.22-1.15c0-0.52-0.52-1.15-2-1.15c-1.39,0-1.92,0.63-2.09,0.94c-0.28,0.52-0.52,0.84-1.05,0.84h-2.18
		c-0.44,0-0.7-0.31-0.7-0.84c0-2.1,1.92-4.41,6.01-4.41c4.27,0,6.01,2.1,6.01,4.3c0,2.31-2.18,2.94-2.18,2.94v0.21
		c0,0,2.53,0.63,2.53,3.57c0,2.31-1.83,4.51-6.36,4.51C45.26,17.1,43.34,14.8,43.34,12.49z"/>
	<path class="st0" d="M61.55,6.61c0,1.26,0.7,2.1,2.27,2.1c1.05,0,2.44-0.42,2.44-0.42V2.72c0-0.42,0.26-0.73,0.61-0.73h2.61
		c0.35,0,0.61,0.31,0.61,0.73v13.23c0,0.42-0.26,0.73-0.61,0.73h-2.61c-0.35,0-0.61-0.31-0.61-0.73v-4.09c0,0-1.57,0.42-2.96,0.42
		c-3.66,0-5.58-2.31-5.58-5.67V2.72c0-0.42,0.26-0.73,0.61-0.73h2.61c0.35,0,0.61,0.31,0.61,0.73V6.61z"/>
	<path class="st0" d="M81.59,8.29l-4.36,7.66c-0.17,0.31-0.52,0.73-0.96,0.73h-2.96c-0.35,0-0.61-0.31-0.61-0.73V2.72
		c0-0.42,0.26-0.73,0.61-0.73h2.61c0.35,0,0.61,0.31,0.61,0.73v7.66h0.17l4.36-7.66c0.17-0.31,0.52-0.73,0.96-0.73h2.96
		c0.35,0,0.61,0.31,0.61,0.73v13.23c0,0.42-0.26,0.73-0.61,0.73h-2.61c-0.35,0-0.61-0.31-0.61-0.73V8.29H81.59z"/>
	<path class="st0" d="M97.1,9.13c0,0,1.22,0.42,2.35,2.94l1.74,3.88c0.14,0.31,0,0.73-0.44,0.73h-2.7c-0.7,0-0.94-0.31-1.13-0.73
		l-1.74-3.88c-0.28-0.63-0.61-1.05-1.57-1.05h-1.57v4.93c0,0.42-0.26,0.73-0.61,0.73h-2.61c-0.35,0-0.61-0.31-0.61-0.73V2.72
		c0-0.42,0.26-0.73,0.61-0.73h2.61c0.35,0,0.61,0.31,0.61,0.73v4.72h1.31c0.96,0,1.29-0.42,1.57-1.05l1.66-3.67
		c0.19-0.42,0.44-0.73,1.13-0.73h2.7c0.44,0,0.57,0.42,0.44,0.73L99.19,6.4c-0.94,2.1-2.09,2.52-2.09,2.52V9.13z"/>
	<path class="st0" d="M111.7,8.29l-4.36,7.66c-0.17,0.31-0.52,0.73-0.96,0.73h-2.96c-0.35,0-0.61-0.31-0.61-0.73V2.72
		c0-0.42,0.26-0.73,0.61-0.73h2.61c0.35,0,0.61,0.31,0.61,0.73v7.66h0.17l4.36-7.66c0.17-0.31,0.52-0.73,0.96-0.73h2.96
		c0.35,0,0.61,0.31,0.61,0.73v13.23c0,0.42-0.26,0.73-0.61,0.73h-2.61c-0.35,0-0.61-0.31-0.61-0.73V8.29H111.7z"/>
	<path class="st0" d="M131.82,10.7c0,0.42-0.26,0.73-0.61,0.73h-7.49c-0.35,0-0.61-0.31-0.61-0.73V8.81c0-0.42,0.26-0.73,0.61-0.73
		h7.49c0.35,0,0.61,0.31,0.61,0.73V10.7z"/>
	<path class="st0" d="M153.34,13.12c0.35,0,0.61,0.31,0.61,0.73v2.1c0,0.42-0.26,0.73-0.61,0.73h-14.81c-0.35,0-0.61-0.31-0.61-0.73
		v-2.1c0-0.42,0.26-0.73,0.61-0.73h0.96l1.13-5.67c0.68-3.36,2.44-5.46,5.92-5.46h5.05c0.35,0,0.61,0.31,0.61,0.73v10.39H153.34z
		 M148.38,5.56h-1.83c-1.13,0-1.78,0.73-2,1.89l-1.13,5.67h4.97V5.56z"/>
	<path class="st0" d="M169.29,9.34c0,4.72-2.53,7.77-7.14,7.77c-4.62,0-7.14-3.04-7.14-7.77s2.53-7.77,7.14-7.77
		C166.76,1.57,169.29,4.61,169.29,9.34z M165.28,9.34c0-2.83-1.22-4.3-3.14-4.3c-1.92,0-3.14,1.47-3.14,4.3s1.22,4.3,3.14,4.3
		C164.06,13.64,165.28,12.17,165.28,9.34z"/>
	<path class="st0" d="M182.36,2.72c0.26-0.31,0.61-0.73,1.39-0.73h2.88c0.35,0,0.61,0.31,0.61,0.73v7.87h0.96
		c0.35,0,0.61,0.31,0.61,0.73v2.1c0,0.42-0.26,0.73-0.61,0.73h-0.96v1.78c0,0.42-0.26,0.73-0.61,0.73h-2.61
		c-0.35,0-0.61-0.31-0.61-0.73v-1.78h-6.8c-0.35,0-0.61-0.31-0.61-0.73v-1.78c0-0.94,0.35-1.36,0.61-1.68L182.36,2.72z M180.44,10.6
		h2.96V6.82h-0.17l-2.79,3.57V10.6z"/>
	<path class="st0" d="M196.12,12.28l-2.18,3.67c-0.17,0.31-0.5,0.73-1.05,0.73h-3.05c-0.44,0-0.63-0.42-0.44-0.73l4.18-6.82
		l-3.83-6.4c-0.19-0.31,0-0.73,0.44-0.73h2.96c0.52,0,0.87,0.42,1.05,0.73l1.92,3.46h0.17l1.92-3.46c0.17-0.31,0.52-0.73,1.04-0.73
		h2.96c0.44,0,0.63,0.42,0.44,0.73l-3.83,6.4l4.18,6.82c0.19,0.31,0,0.73-0.44,0.73h-3.05c-0.54,0-0.87-0.42-1.05-0.73l-2.18-3.67
		H196.12z"/>
	<path class="st0" d="M212.85,6.61c0,1.26,0.7,2.1,2.26,2.1c1.05,0,2.44-0.42,2.44-0.42V2.72c0-0.42,0.26-0.73,0.61-0.73h2.61
		c0.35,0,0.61,0.31,0.61,0.73v13.23c0,0.42-0.26,0.73-0.61,0.73h-2.61c-0.35,0-0.61-0.31-0.61-0.73v-4.09c0,0-1.57,0.42-2.96,0.42
		c-3.66,0-5.58-2.31-5.58-5.67V2.72c0-0.42,0.26-0.73,0.61-0.73h2.61c0.35,0,0.61,0.31,0.61,0.73V6.61z"/>
	<path class="st0" d="M235.85,4.82c0,0.42-0.26,0.73-0.61,0.73h-7.41v1.89h5.49c0.35,0,0.61,0.31,0.61,0.73v2.1
		c0,0.42-0.26,0.73-0.61,0.73h-5.49v2.1h7.41c0.35,0,0.61,0.31,0.61,0.73v2.1c0,0.42-0.26,0.73-0.61,0.73h-10.63
		c-0.35,0-0.61-0.31-0.61-0.73V2.72c0-0.42,0.26-0.73,0.61-0.73h10.63c0.35,0,0.61,0.31,0.61,0.73V4.82z"/>
	<path class="st0" d="M250.42,15.95c0,0.42-0.26,0.73-0.61,0.73h-2.61c-0.35,0-0.61-0.31-0.61-0.73V5.56h-2.09
		c-1.13,0-1.76,0.73-2,1.89l-1.74,8.5c-0.09,0.42-0.35,0.73-0.68,0.73h-2.63c-0.44,0-0.7-0.34-0.61-0.73l1.74-8.5
		c0.7-3.36,2.44-5.46,5.92-5.46h5.31c0.35,0,0.61,0.31,0.61,0.73V15.95z"/>
	<path class="st0" d="M266.8,9.34c0,4.72-2.53,7.77-7.14,7.77c-4.62,0-7.14-3.04-7.14-7.77s2.53-7.77,7.14-7.77
		C264.27,1.57,266.8,4.61,266.8,9.34z M262.79,9.34c0-2.83-1.22-4.3-3.14-4.3c-1.92,0-3.14,1.47-3.14,4.3s1.22,4.3,3.14,4.3
		C261.57,13.64,262.79,12.17,262.79,9.34z"/>
	<path class="st0" d="M279.17,8.81v0.21c0,0,2.61,0.63,2.61,3.36c0,2.31-1.66,4.3-5.31,4.3h-6.97c-0.35,0-0.61-0.31-0.61-0.73V2.72
		c0-0.42,0.26-0.73,0.61-0.73h6.27c3.57,0,5.14,1.89,5.14,4.09C280.91,8.18,279.17,8.81,279.17,8.81z M272.72,5.35v2.1h3.05
		c0.78,0,1.13-0.42,1.13-1.05s-0.33-1.05-1.13-1.05H272.72z M272.72,10.81v2.52h3.75c0.87,0,1.31-0.52,1.31-1.26
		s-0.44-1.26-1.31-1.26H272.72z"/>
	<path class="st0" d="M295.55,4.82c0,0.42-0.26,0.73-0.61,0.73h-7.41v1.89h5.49c0.35,0,0.61,0.31,0.61,0.73v2.1
		c0,0.42-0.26,0.73-0.61,0.73h-5.49v2.1h7.41c0.35,0,0.61,0.31,0.61,0.73v2.1c0,0.42-0.26,0.73-0.61,0.73h-10.63
		c-0.35,0-0.61-0.31-0.61-0.73V2.72c0-0.42,0.26-0.73,0.61-0.73h10.63c0.35,0,0.61,0.31,0.61,0.73V4.82z"/>
	<path class="st0" d="M306.35,9.13c0,0,1.22,0.42,2.35,2.94l1.74,3.88c0.14,0.31,0,0.73-0.44,0.73h-2.7c-0.7,0-0.94-0.31-1.13-0.73
		l-1.74-3.88c-0.28-0.63-0.61-1.05-1.57-1.05h-1.57v4.93c0,0.42-0.26,0.73-0.61,0.73h-2.61c-0.35,0-0.61-0.31-0.61-0.73V2.72
		c0-0.42,0.26-0.73,0.61-0.73h2.61c0.35,0,0.61,0.31,0.61,0.73v4.72h1.31c0.96,0,1.29-0.42,1.57-1.05l1.66-3.67
		c0.19-0.42,0.44-0.73,1.13-0.73h2.7c0.44,0,0.58,0.42,0.44,0.73l-1.66,3.67c-0.94,2.1-2.09,2.52-2.09,2.52V9.13z"/>
</g>
<line class="st1" x1="1.78" y1="19.63" x2="310.76" y2="19.63"/>
<g>
	<path class="st0" d="M8.75,32.74H3.33c-0.28,0-0.49-0.21-0.49-0.49v-8.82c0-0.28,0.21-0.49,0.49-0.49h8.45
		c0.28,0,0.49,0.21,0.49,0.49v1.4c0,0.28-0.21,0.49-0.49,0.49H5.93v1.12h2.82c2.96,0,4.37,1.4,4.37,3.15S11.71,32.74,8.75,32.74z
		 M5.93,28.68v1.82h2.82c0.7,0,1.13-0.42,1.13-0.91s-0.42-0.91-1.13-0.91H5.93z"/>
	<path class="st0" d="M19.74,32.74h-4.65c-0.28,0-0.49-0.21-0.49-0.49v-8.82c0-0.28,0.21-0.49,0.49-0.49h2.11
		c0.28,0,0.49,0.21,0.49,0.49v2.45h2.04c3.24,0,4.72,1.47,4.72,3.43S22.97,32.74,19.74,32.74z M19.74,28.12h-2.04v2.38h2.04
		c0.99,0,1.48-0.49,1.48-1.19S20.72,28.12,19.74,28.12z M28.82,32.25c0,0.28-0.21,0.49-0.49,0.49h-2.11c-0.28,0-0.49-0.21-0.49-0.49
		v-8.82c0-0.28,0.21-0.49,0.49-0.49h2.11c0.28,0,0.49,0.21,0.49,0.49V32.25z"/>
	<path class="st0" d="M41.35,26.02c0,0.35-0.21,0.56-0.56,0.56h-1.76c-0.42,0-0.63-0.21-0.84-0.56c-0.35-0.56-0.85-1.05-1.9-1.05
		c-1.55,0-2.54,0.98-2.54,2.87s0.99,2.87,2.54,2.87c1.13,0,1.69-0.56,2.04-1.19c0.2-0.35,0.42-0.56,0.85-0.56h1.76
		c0.35,0,0.56,0.21,0.56,0.56c0,1.68-1.83,3.5-5.21,3.5c-3.73,0-5.77-2.03-5.77-5.18s2.04-5.18,5.77-5.18
		C39.59,22.66,41.35,24.41,41.35,26.02z"/>
	<path class="st0" d="M52.06,24.83c0,0.28-0.21,0.49-0.49,0.49h-2.96v6.93c0,0.28-0.21,0.49-0.49,0.49H46
		c-0.28,0-0.49-0.21-0.49-0.49v-6.93h-2.96c-0.28,0-0.49-0.21-0.49-0.49v-1.4c0-0.28,0.21-0.49,0.49-0.49h9.01
		c0.28,0,0.49,0.21,0.49,0.49V24.83z"/>
	<path class="st0" d="M58.75,30.08h-2.32v2.17c0,0.28-0.21,0.49-0.49,0.49h-2.11c-0.28,0-0.49-0.21-0.49-0.49v-8.82
		c0-0.28,0.21-0.49,0.49-0.49h4.93c3.31,0,4.86,1.54,4.86,3.57S62.05,30.08,58.75,30.08z M58.75,27.84c1.06,0,1.62-0.56,1.62-1.33
		s-0.56-1.33-1.62-1.33h-2.32v2.66H58.75z"/>
	<path class="st0" d="M76.14,27.84c0,3.15-2.04,5.18-5.77,5.18s-5.77-2.03-5.77-5.18s2.04-5.18,5.77-5.18S76.14,24.69,76.14,27.84z
		 M72.9,27.84c0-1.89-0.99-2.87-2.54-2.87s-2.54,0.98-2.54,2.87s0.99,2.87,2.54,2.87S72.9,29.73,72.9,27.84z"/>
	<path class="st0" d="M77.33,31.2c0-0.35,0.35-0.7,0.7-0.7h1.41c0.35,0,0.7,0.35,0.7,0.7v0.84c0,0.56-0.13,0.7-0.21,0.84l-0.63,0.98
		c-0.18,0.28-0.35,0.42-0.63,0.42h-0.56c-0.35,0-0.45-0.22-0.34-0.42l0.62-1.12h-0.35c-0.35,0-0.7-0.35-0.7-0.7V31.2z"/>
	<path class="st0" d="M93.32,27.7c0,0,0.99,0.28,1.9,1.96l1.41,2.59c0.11,0.21,0,0.49-0.35,0.49h-2.18c-0.56,0-0.76-0.21-0.92-0.49
		l-1.41-2.59c-0.23-0.42-0.49-0.7-1.27-0.7h-1.27v3.29c0,0.28-0.21,0.49-0.49,0.49h-2.11c-0.28,0-0.49-0.21-0.49-0.49v-8.82
		c0-0.28,0.21-0.49,0.49-0.49h2.11c0.28,0,0.49,0.21,0.49,0.49v3.15h1.06c0.77,0,1.04-0.28,1.27-0.7l1.34-2.45
		c0.16-0.28,0.35-0.49,0.92-0.49h2.18c0.35,0,0.46,0.28,0.35,0.49l-1.34,2.45c-0.76,1.4-1.69,1.68-1.69,1.68V27.7z"/>
	<path class="st0" d="M105.09,30.99h-4.44l-0.49,1.26c-0.11,0.28-0.35,0.49-0.63,0.49h-2.25c-0.28,0-0.48-0.21-0.35-0.49l3.94-8.82
		c0.13-0.28,0.35-0.49,0.63-0.49h2.89c0.28,0,0.51,0.2,0.63,0.48l3.94,8.84c0.13,0.28-0.07,0.49-0.35,0.49h-2.39
		c-0.28,0-0.52-0.21-0.63-0.49L105.09,30.99z M101.64,28.68h2.46l-1.13-2.8h-0.14L101.64,28.68z"/>
	<path class="st0" d="M112.03,26.02c0,0.84,0.56,1.4,1.83,1.4c0.84,0,1.97-0.28,1.97-0.28v-3.71c0-0.28,0.21-0.49,0.49-0.49h2.11
		c0.28,0,0.49,0.21,0.49,0.49v8.82c0,0.28-0.21,0.49-0.49,0.49h-2.11c-0.28,0-0.49-0.21-0.49-0.49v-2.73c0,0-1.27,0.28-2.39,0.28
		c-2.96,0-4.51-1.54-4.51-3.78v-2.59c0-0.28,0.21-0.49,0.49-0.49h2.11c0.28,0,0.49,0.21,0.49,0.49V26.02z"/>
	<path class="st0" d="M130.62,24.83c0,0.28-0.21,0.49-0.49,0.49h-5.99v1.26h4.44c0.28,0,0.49,0.21,0.49,0.49v1.4
		c0,0.28-0.21,0.49-0.49,0.49h-4.44v1.4h5.99c0.28,0,0.49,0.21,0.49,0.49v1.4c0,0.28-0.21,0.49-0.49,0.49h-8.59
		c-0.28,0-0.49-0.21-0.49-0.49v-8.82c0-0.28,0.21-0.49,0.49-0.49h8.59c0.28,0,0.49,0.21,0.49,0.49V24.83z"/>
	<path class="st0" d="M142.31,26.02c0,0.35-0.21,0.56-0.56,0.56h-1.76c-0.42,0-0.63-0.21-0.84-0.56c-0.35-0.56-0.85-1.05-1.9-1.05
		c-1.55,0-2.54,0.98-2.54,2.87s0.99,2.87,2.54,2.87c1.13,0,1.69-0.56,2.04-1.19c0.2-0.35,0.42-0.56,0.85-0.56h1.76
		c0.35,0,0.56,0.21,0.56,0.56c0,1.68-1.83,3.5-5.21,3.5c-3.73,0-5.77-2.03-5.77-5.18s2.04-5.18,5.77-5.18
		C140.55,22.66,142.31,24.41,142.31,26.02z"/>
	<path class="st0" d="M153.02,24.83c0,0.28-0.21,0.49-0.49,0.49h-2.96v6.93c0,0.28-0.21,0.49-0.49,0.49h-2.11
		c-0.28,0-0.49-0.21-0.49-0.49v-6.93h-2.96c-0.28,0-0.49-0.21-0.49-0.49v-1.4c0-0.28,0.21-0.49,0.49-0.49h9.01
		c0.28,0,0.49,0.21,0.49,0.49V24.83z"/>
	<path class="st0" d="M162.59,27.49v0.14c0,0,2.11,0.42,2.11,2.24c0,1.54-1.34,2.87-4.3,2.87h-5.63c-0.28,0-0.49-0.21-0.49-0.49
		v-8.82c0-0.28,0.21-0.49,0.49-0.49h5.07c2.89,0,4.15,1.26,4.15,2.73C164,27.07,162.59,27.49,162.59,27.49z M157.38,25.18v1.4h2.46
		c0.63,0,0.92-0.28,0.92-0.7s-0.27-0.7-0.92-0.7H157.38z M157.38,28.82v1.68h3.03c0.7,0,1.06-0.35,1.06-0.84s-0.35-0.84-1.06-0.84
		H157.38z"/>
	<path class="st0" d="M175.83,24.83c0,0.28-0.21,0.49-0.49,0.49h-5.99v1.26h4.44c0.28,0,0.49,0.21,0.49,0.49v1.4
		c0,0.28-0.21,0.49-0.49,0.49h-4.44v1.4h5.99c0.28,0,0.49,0.21,0.49,0.49v1.4c0,0.28-0.21,0.49-0.49,0.49h-8.59
		c-0.28,0-0.49-0.21-0.49-0.49v-8.82c0-0.28,0.21-0.49,0.49-0.49h8.59c0.28,0,0.49,0.21,0.49,0.49V24.83z"/>
	<path class="st0" d="M187.66,32.25c0,0.28-0.21,0.49-0.49,0.49h-2.11c-0.28,0-0.49-0.21-0.49-0.49V29.1h-4.08v3.15
		c0,0.28-0.21,0.49-0.49,0.49h-2.11c-0.28,0-0.49-0.21-0.49-0.49v-8.82c0-0.28,0.21-0.49,0.49-0.49h2.11c0.28,0,0.49,0.21,0.49,0.49
		v3.29h4.08v-3.29c0-0.28,0.21-0.49,0.49-0.49h2.11c0.28,0,0.49,0.21,0.49,0.49V32.25z"/>
	<path class="st0" d="M200.05,32.25c0,0.28-0.21,0.49-0.49,0.49h-2.11c-0.28,0-0.49-0.21-0.49-0.49V29.1h-4.08v3.15
		c0,0.28-0.21,0.49-0.49,0.49h-2.11c-0.28,0-0.49-0.21-0.49-0.49v-8.82c0-0.28,0.21-0.49,0.49-0.49h2.11c0.28,0,0.49,0.21,0.49,0.49
		v3.29h4.08v-3.29c0-0.28,0.21-0.49,0.49-0.49h2.11c0.28,0,0.49,0.21,0.49,0.49V32.25z"/>
	<path class="st0" d="M213.29,27.84c0,3.15-2.04,5.18-5.77,5.18s-5.77-2.03-5.77-5.18s2.04-5.18,5.77-5.18
		S213.29,24.69,213.29,27.84z M210.05,27.84c0-1.89-0.99-2.87-2.54-2.87c-1.55,0-2.54,0.98-2.54,2.87s0.99,2.87,2.54,2.87
		C209.07,30.71,210.05,29.73,210.05,27.84z"/>
	<path class="st0" d="M214.49,31.2c0-0.35,0.35-0.7,0.7-0.7h1.41c0.35,0,0.7,0.35,0.7,0.7v0.84c0,0.56-0.13,0.7-0.21,0.84
		l-0.63,0.98c-0.18,0.28-0.35,0.42-0.63,0.42h-0.56c-0.35,0-0.45-0.22-0.34-0.42l0.62-1.12h-0.35c-0.35,0-0.7-0.35-0.7-0.7V31.2z"/>
	<path class="st0" d="M229.2,32.74h-5.42c-0.28,0-0.49-0.21-0.49-0.49v-8.82c0-0.28,0.21-0.49,0.49-0.49h8.45
		c0.28,0,0.49,0.21,0.49,0.49v1.4c0,0.28-0.21,0.49-0.49,0.49h-5.84v1.12h2.82c2.96,0,4.37,1.4,4.37,3.15S232.16,32.74,229.2,32.74z
		 M226.39,28.68v1.82h2.82c0.7,0,1.13-0.42,1.13-0.91s-0.42-0.91-1.13-0.91H226.39z"/>
	<path class="st0" d="M244.63,24.83c0,0.28-0.21,0.49-0.49,0.49h-5.99v1.26h4.44c0.28,0,0.49,0.21,0.49,0.49v1.4
		c0,0.28-0.21,0.49-0.49,0.49h-4.44v1.4h5.99c0.28,0,0.49,0.21,0.49,0.49v1.4c0,0.28-0.21,0.49-0.49,0.49h-8.59
		c-0.28,0-0.49-0.21-0.49-0.49v-8.82c0-0.28,0.21-0.49,0.49-0.49h8.59c0.28,0,0.49,0.21,0.49,0.49V24.83z"/>
	<path class="st0" d="M251.6,30.08h-2.32v2.17c0,0.28-0.21,0.49-0.49,0.49h-2.11c-0.28,0-0.49-0.21-0.49-0.49v-8.82
		c0-0.28,0.21-0.49,0.49-0.49h4.93c3.31,0,4.86,1.54,4.86,3.57S254.91,30.08,251.6,30.08z M251.6,27.84c1.06,0,1.62-0.56,1.62-1.33
		s-0.56-1.33-1.62-1.33h-2.32v2.66H251.6z"/>
	<path class="st0" d="M267.44,24.83c0,0.28-0.21,0.49-0.49,0.49h-5.99v1.26h4.44c0.28,0,0.49,0.21,0.49,0.49v1.4
		c0,0.28-0.21,0.49-0.49,0.49h-4.44v1.4h5.99c0.28,0,0.49,0.21,0.49,0.49v1.4c0,0.28-0.21,0.49-0.49,0.49h-8.59
		c-0.28,0-0.49-0.21-0.49-0.49v-8.82c0-0.28,0.21-0.49,0.49-0.49h8.59c0.28,0,0.49,0.21,0.49,0.49V24.83z"/>
	<path class="st0" d="M271.49,27.56c0,0-0.93-0.28-1.69-1.68l-1.34-2.45c-0.11-0.21,0-0.49,0.35-0.49H271
		c0.56,0,0.76,0.21,0.92,0.49l1.34,2.45c0.23,0.42,0.49,0.7,1.27,0.7h0.49v-3.15c0-0.28,0.21-0.49,0.49-0.49h2.11
		c0.28,0,0.49,0.21,0.49,0.49v3.15h0.49c0.77,0,1.04-0.28,1.27-0.7l1.34-2.45c0.15-0.28,0.35-0.49,0.92-0.49h2.18
		c0.35,0,0.46,0.28,0.35,0.49l-1.34,2.45c-0.76,1.4-1.69,1.68-1.69,1.68v0.14c0,0,0.99,0.28,1.9,1.96l1.41,2.59
		c0.11,0.21,0,0.49-0.35,0.49h-2.18c-0.56,0-0.76-0.21-0.92-0.49l-1.41-2.59c-0.23-0.42-0.49-0.7-1.27-0.7h-0.7v3.29
		c0,0.28-0.21,0.49-0.49,0.49h-2.11c-0.28,0-0.49-0.21-0.49-0.49v-3.29h-0.7c-0.77,0-1.04,0.28-1.27,0.7l-1.41,2.59
		c-0.16,0.28-0.35,0.49-0.92,0.49h-2.18c-0.35,0-0.46-0.28-0.35-0.49l1.41-2.59c0.92-1.68,1.9-1.96,1.9-1.96V27.56z"/>
	<path class="st0" d="M296.53,32.25c0,0.28-0.21,0.49-0.49,0.49h-2.11c-0.28,0-0.49-0.21-0.49-0.49V29.1h-4.08v3.15
		c0,0.28-0.21,0.49-0.49,0.49h-2.11c-0.28,0-0.49-0.21-0.49-0.49v-8.82c0-0.28,0.21-0.49,0.49-0.49h2.11c0.28,0,0.49,0.21,0.49,0.49
		v3.29h4.08v-3.29c0-0.28,0.21-0.49,0.49-0.49h2.11c0.28,0,0.49,0.21,0.49,0.49V32.25z"/>
	<path class="st0" d="M309.77,27.84c0,3.15-2.04,5.18-5.77,5.18s-5.77-2.03-5.77-5.18s2.04-5.18,5.77-5.18
		S309.77,24.69,309.77,27.84z M306.53,27.84c0-1.89-0.99-2.87-2.54-2.87c-1.55,0-2.54,0.98-2.54,2.87s0.99,2.87,2.54,2.87
		C305.55,30.71,306.53,29.73,306.53,27.84z"/>
</g>
</svg>
