<?xml version="1.0" encoding="utf-8"?>
<!-- Generator: Adobe Illustrator 27.3.1, SVG Export Plug-In . SVG Version: 6.00 Build 0)  -->
<svg version="1.1" id="Слой_1" xmlns="http://www.w3.org/2000/svg"
	xmlns:xlink="http://www.w3.org/1999/xlink" x="0px" y="0px"
	viewBox="0 0 385.51 70.87" style="enable-background:new 0 0 385.51 70.87;" xml:space="preserve">
<style type="text/css">
.st0{fill:#008D36;}
.st1{stroke:#000000;stroke-width:0.25;stroke-miterlimit:10;}
</style>
<g>
<path class="st0" d="M44.67,39.43c0,0.95-0.83,1.66-1.93,1.66h-8.27c-1.1,0-1.93-0.71-1.93-1.66v-23.5H16.56v23.5
c0,0.95-0.83,1.66-1.93,1.66H6.36c-1.1,0-1.93-0.71-1.93-1.66V9.51c0-0.95,0.83-1.66,1.93-1.66h36.39c1.1,0,1.93,0.71,1.93,1.66
V39.43z"/>
<path class="st0" d="M90.43,14.26c0,0.95-0.83,1.66-1.93,1.66H65.07v4.27h17.37c1.1,0,1.93,0.71,1.93,1.66v4.75
c0,0.95-0.83,1.66-1.93,1.66H65.07v4.75H88.5c1.1,0,1.93,0.71,1.93,1.66v4.75c0,0.95-0.83,1.66-1.93,1.66H54.87
c-1.1,0-1.93-0.71-1.93-1.66V9.51c0-0.95,0.83-1.66,1.93-1.66H88.5c1.1,0,1.93,0.71,1.93,1.66V14.26z"/>
<path class="st0" d="M117.71,32.07h-9.1v7.36c0,0.95-0.83,1.66-1.93,1.66h-8.27c-1.1,0-1.93-0.71-1.93-1.66V9.51
c0-0.95,0.83-1.66,1.93-1.66h19.3c12.96,0,19.02,5.22,19.02,12.11C136.73,26.85,130.67,32.07,117.71,32.07z M117.71,24.47
c4.13,0,6.34-1.9,6.34-4.51c0-2.61-2.21-4.51-6.34-4.51h-9.1v9.02H117.71z"/>
<path class="st0" d="M179.73,14.26c0,0.95-0.83,1.66-1.93,1.66h-23.43v4.27h17.37c1.1,0,1.93,0.71,1.93,1.66v4.75
c0,0.95-0.83,1.66-1.93,1.66h-17.37v4.75h23.43c1.1,0,1.93,0.71,1.93,1.66v4.75c0,0.95-0.83,1.66-1.93,1.66h-33.63
c-1.1,0-1.93-0.71-1.93-1.66V9.51c0-0.95,0.83-1.66,1.93-1.66h33.63c1.1,0,1.93,0.71,1.93,1.66V14.26z"/>
<path class="st0" d="M223.28,14.26c0,0.95-0.83,1.66-1.93,1.66h-23.43v4.27h17.37c1.1,0,1.93,0.71,1.93,1.66v4.75
c0,0.95-0.83,1.66-1.93,1.66h-17.37v4.75h23.43c1.1,0,1.93,0.71,1.93,1.66v4.75c0,0.95-0.83,1.66-1.93,1.66h-33.63
c-1.1,0-1.93-0.71-1.93-1.66V9.51c0-0.95,0.83-1.66,1.93-1.66h33.63c1.1,0,1.93,0.71,1.93,1.66V14.26z"/>
<path class="st0" d="M226.58,31.59c0-1.19,0.83-1.9,2.21-1.9h6.89c1.65,0,2.59,0.85,3.31,1.9c0.83,1.19,2.76,2.61,7.99,2.61
c5.51,0,7.44-1.66,7.44-3.09c0-1.66-1.65-3.09-4.41-3.09h-7.17c-1.1,0-1.93-0.71-1.93-1.66v-4.75c0-0.95,0.83-1.66,1.93-1.66h6.62
c2.48,0,3.86-1.19,3.86-2.61c0-1.19-1.65-2.61-6.34-2.61c-4.41,0-6.06,1.42-6.62,2.14c-0.88,1.19-1.65,1.9-3.31,1.9h-6.89
c-1.38,0-2.21-0.71-2.21-1.9c0-4.75,6.06-9.97,19.02-9.97c13.51,0,19.02,4.75,19.02,9.73c0,5.22-6.89,6.65-6.89,6.65v0.48
c0,0,7.99,1.42,7.99,8.07c0,5.22-5.79,10.21-20.12,10.21C232.64,42.04,226.58,36.82,226.58,31.59z"/>
<path class="st0" d="M318.36,33.02c1.1,0,1.93,0.71,1.93,1.66v4.75c0,0.95-0.83,1.66-1.93,1.66H271.5c-1.1,0-1.93-0.71-1.93-1.66
v-4.75c0-0.95,0.83-1.66,1.93-1.66h3.03l3.58-12.82c2.15-7.6,7.72-12.35,18.74-12.35h15.99c1.1,0,1.93,0.71,1.93,1.66v23.51H318.36
z M302.65,15.92h-5.79c-3.58,0-5.62,1.66-6.34,4.27l-3.58,12.82h15.71V15.92z"/>
<path class="st0" d="M345.37,41.09h-18.19c-1.1,0-1.93-0.71-1.93-1.66V9.51c0-0.95,0.83-1.66,1.93-1.66h8.27
c1.1,0,1.93,0.71,1.93,1.66v8.31h7.99c12.68,0,18.47,4.99,18.47,11.63C363.84,36.1,358.05,41.09,345.37,41.09z M345.37,25.42h-7.99
v8.07h7.99c3.86,0,5.79-1.66,5.79-4.04C351.16,27.08,349.23,25.42,345.37,25.42z M380.93,39.43c0,0.95-0.83,1.66-1.93,1.66h-8.27
c-1.1,0-1.93-0.71-1.93-1.66V9.51c0-0.95,0.83-1.66,1.93-1.66H379c1.1,0,1.93,0.71,1.93,1.66V39.43z"/>
</g>
<g>
<path class="st0" d="M19.73,65.24c0,0.42-0.32,0.73-0.75,0.73h-3.23c-0.43,0-0.75-0.31-0.75-0.73V54.84H8.74v10.39
c0,0.42-0.32,0.73-0.75,0.73H4.75C4.32,65.97,4,65.66,4,65.24V52.01c0-0.42,0.32-0.74,0.75-0.74h14.22c0.43,0,0.75,0.32,0.75,0.74
V65.24z"/>
<path class="st0" d="M39.98,58.62c0,4.72-3.12,7.77-8.83,7.77s-8.83-3.04-8.83-7.77c0-4.72,3.12-7.77,8.83-7.77
S39.98,53.9,39.98,58.62z M35.03,58.62c0-2.83-1.51-4.3-3.88-4.3s-3.88,1.47-3.88,4.3c0,2.83,1.51,4.3,3.88,4.3
S35.03,61.46,35.03,58.62z"/>
<path class="st0" d="M48.93,56.31c0-2.83,2.26-5.04,7.11-5.04h7.65c0.43,0,0.75,0.32,0.75,0.74v13.23c0,0.42-0.32,0.73-0.75,0.73
h-3.23c-0.43,0-0.75-0.31-0.75-0.73v-3.88H56.8l-3.02,3.88c-0.24,0.31-0.65,0.73-1.4,0.73h-3.66c-0.54,0-0.78-0.42-0.54-0.73
l3.88-4.93v-0.21C52.06,60.09,48.93,59.46,48.93,56.31z M59.71,57.99v-3.36h-3.66c-1.4,0-2.15,0.74-2.15,1.68
c0,0.95,0.75,1.68,2.15,1.68H59.71z"/>
<path class="st0" d="M75.98,61.98h-3.56v3.25c0,0.42-0.32,0.73-0.75,0.73h-3.23c-0.43,0-0.75-0.31-0.75-0.73V52.01
c0-0.42,0.32-0.74,0.75-0.74h7.54c5.06,0,7.43,2.31,7.43,5.35C83.41,59.67,81.04,61.98,75.98,61.98z M75.98,58.62
c1.62,0,2.48-0.84,2.48-1.99c0-1.16-0.86-2-2.48-2h-3.56v3.99H75.98z"/>
<path class="st0" d="M102.59,58.62c0,4.72-3.12,7.77-8.83,7.77s-8.83-3.04-8.83-7.77c0-4.72,3.12-7.77,8.83-7.77
S102.59,53.9,102.59,58.62z M97.63,58.62c0-2.83-1.51-4.3-3.88-4.3s-3.88,1.47-3.88,4.3c0,2.83,1.51,4.3,3.88,4.3
S97.63,61.46,97.63,58.62z"/>
<path class="st0" d="M121.12,55.89c0,0.53-0.32,0.84-0.86,0.84h-2.69c-0.65,0-0.97-0.31-1.29-0.84c-0.54-0.84-1.29-1.57-2.91-1.57
c-2.37,0-3.88,1.47-3.88,4.3c0,2.83,1.51,4.3,3.88,4.3c1.72,0,2.59-0.84,3.12-1.79c0.3-0.52,0.65-0.84,1.29-0.84h2.69
c0.54,0,0.86,0.32,0.86,0.84c0,2.52-2.8,5.25-7.97,5.25c-5.71,0-8.83-3.04-8.83-7.77c0-4.72,3.12-7.77,8.83-7.77
C118.43,50.85,121.12,53.48,121.12,55.89z"/>
<path class="st0" d="M139.36,65.24c0,0.42-0.32,0.73-0.75,0.73h-3.23c-0.43,0-0.75-0.31-0.75-0.73V54.84h-2.59
c-1.4,0-2.18,0.74-2.48,1.89l-2.15,8.5c-0.11,0.42-0.43,0.73-0.84,0.73h-3.25c-0.54,0-0.86-0.34-0.75-0.73l2.15-8.5
c0.86-3.36,3.02-5.46,7.33-5.46h6.57c0.43,0,0.75,0.32,0.75,0.74V65.24z"/>
<path class="st0" d="M153.54,63.35h-6.79L146,65.24c-0.17,0.42-0.54,0.73-0.97,0.73h-3.45c-0.43,0-0.73-0.31-0.54-0.73l6.03-13.23
c0.19-0.42,0.54-0.74,0.97-0.74h4.42c0.43,0,0.78,0.29,0.97,0.71l6.03,13.25c0.19,0.42-0.11,0.73-0.54,0.73h-3.66
c-0.43,0-0.8-0.31-0.97-0.73L153.54,63.35z M148.26,59.88h3.77l-1.72-4.2h-0.22L148.26,59.88z"/>
<path class="st0" d="M173.86,58.1v0.21c0,0,3.23,0.63,3.23,3.36c0,2.31-2.05,4.3-6.57,4.3h-8.62c-0.43,0-0.75-0.31-0.75-0.73V52.01
c0-0.42,0.32-0.74,0.75-0.74h7.76c4.42,0,6.36,1.89,6.36,4.09C176.01,57.47,173.86,58.1,173.86,58.1z M165.89,54.63v2.1h3.77
c0.97,0,1.4-0.42,1.4-1.05s-0.41-1.05-1.4-1.05H165.89z M165.89,60.09v2.52h4.63c1.08,0,1.62-0.52,1.62-1.26
c0-0.73-0.54-1.26-1.62-1.26H165.89z"/>
<path class="st0" d="M195.11,65.24c0,0.42-0.32,0.73-0.75,0.73h-3.23c-0.43,0-0.75-0.31-0.75-0.73V54.84h-2.59
c-1.4,0-2.18,0.74-2.48,1.89l-2.15,8.5c-0.11,0.42-0.43,0.73-0.84,0.73h-3.25c-0.54,0-0.86-0.34-0.75-0.73l2.15-8.5
c0.86-3.36,3.02-5.46,7.33-5.46h6.57c0.43,0,0.75,0.32,0.75,0.74V65.24z"/>
<path class="st0" d="M213.21,66.39c-4.85,0-7.33-2.41-7.97-5.88h-2.15v4.72c0,0.42-0.32,0.73-0.75,0.73h-3.23
c-0.43,0-0.75-0.31-0.75-0.73V52.01c0-0.42,0.32-0.74,0.75-0.74h3.23c0.43,0,0.75,0.32,0.75,0.74v4.93h2.15
c0.65-3.67,3.12-6.09,7.97-6.09c5.17,0,8.19,2.94,8.19,7.77S218.38,66.39,213.21,66.39z M213.21,54.32c-1.83,0-3.23,1.36-3.23,4.3
s1.4,4.3,3.23,4.3s3.23-1.37,3.23-4.3S215.04,54.32,213.21,54.32z"/>
<path class="st0" d="M241.66,57.57l-5.39,7.66c-0.21,0.31-0.65,0.73-1.18,0.73h-3.66c-0.43,0-0.75-0.31-0.75-0.73V52.01
c0-0.42,0.32-0.74,0.75-0.74h3.23c0.43,0,0.75,0.32,0.75,0.74v7.66h0.21l5.39-7.66c0.22-0.32,0.65-0.74,1.18-0.74h3.66
c0.43,0,0.75,0.32,0.75,0.74v13.23c0,0.42-0.32,0.73-0.75,0.73h-3.23c-0.43,0-0.75-0.31-0.75-0.73v-7.66H241.66z"/>
<path class="st0" d="M273.55,58.62c0,4.72-3.12,7.77-8.83,7.77c-5.71,0-8.83-3.04-8.83-7.77c0-4.72,3.12-7.77,8.83-7.77
C270.43,50.85,273.55,53.9,273.55,58.62z M268.6,58.62c0-2.83-1.51-4.3-3.88-4.3s-3.88,1.47-3.88,4.3c0,2.83,1.51,4.3,3.88,4.3
S268.6,61.46,268.6,58.62z"/>
<path class="st0" d="M285.19,65.97h-8.29c-0.43,0-0.75-0.31-0.75-0.73V52.01c0-0.42,0.32-0.74,0.75-0.74h12.93
c0.43,0,0.75,0.32,0.75,0.74v2.1c0,0.42-0.32,0.73-0.75,0.73h-8.94v1.68h4.31c4.52,0,6.68,2.1,6.68,4.72
C291.87,63.87,289.72,65.97,285.19,65.97z M280.88,59.88v2.73h4.31c1.08,0,1.72-0.63,1.72-1.36c0-0.74-0.65-1.37-1.72-1.37H280.88z
"/>
<path class="st0" d="M309.78,65.24c0,0.42-0.32,0.73-0.75,0.73h-3.23c-0.43,0-0.75-0.31-0.75-0.73V54.84h-2.58
c-1.4,0-2.18,0.74-2.48,1.89l-2.15,8.5c-0.11,0.42-0.43,0.73-0.84,0.73h-3.25c-0.54,0-0.86-0.34-0.75-0.73l2.15-8.5
c0.86-3.36,3.02-5.46,7.33-5.46h6.57c0.43,0,0.75,0.32,0.75,0.74V65.24z"/>
<path class="st0" d="M323.96,63.35h-6.79l-0.75,1.89c-0.17,0.42-0.54,0.73-0.97,0.73H312c-0.43,0-0.73-0.31-0.54-0.73l6.03-13.23
c0.19-0.42,0.54-0.74,0.97-0.74h4.42c0.43,0,0.78,0.29,0.97,0.71l6.03,13.25c0.19,0.42-0.11,0.73-0.54,0.73h-3.66
c-0.43,0-0.8-0.31-0.97-0.73L323.96,63.35z M318.68,59.88h3.77l-1.72-4.2h-0.21L318.68,59.88z"/>
<path class="st0" d="M347.08,55.89c0,0.53-0.32,0.84-0.86,0.84h-2.69c-0.65,0-0.97-0.31-1.29-0.84c-0.54-0.84-1.29-1.57-2.91-1.57
c-2.37,0-3.88,1.47-3.88,4.3c0,2.83,1.51,4.3,3.88,4.3c1.72,0,2.59-0.84,3.12-1.79c0.3-0.52,0.65-0.84,1.29-0.84h2.69
c0.54,0,0.86,0.32,0.86,0.84c0,2.52-2.8,5.25-7.97,5.25c-5.71,0-8.83-3.04-8.83-7.77c0-4.72,3.12-7.77,8.83-7.77
C344.39,50.85,347.08,53.48,347.08,55.89z"/>
<path class="st0" d="M363.46,54.11c0,0.42-0.32,0.73-0.75,0.73h-4.52v10.39c0,0.42-0.32,0.73-0.75,0.73h-3.23
c-0.43,0-0.75-0.31-0.75-0.73V54.84h-4.52c-0.43,0-0.75-0.31-0.75-0.73v-2.1c0-0.42,0.32-0.74,0.75-0.74h13.79
c0.43,0,0.75,0.32,0.75,0.74V54.11z"/>
<path class="st0" d="M376.39,57.57l-5.39,7.66c-0.22,0.31-0.65,0.73-1.19,0.73h-3.66c-0.43,0-0.75-0.31-0.75-0.73V52.01
c0-0.42,0.32-0.74,0.75-0.74h3.23c0.43,0,0.75,0.32,0.75,0.74v7.66h0.22l5.39-7.66c0.22-0.32,0.65-0.74,1.19-0.74h3.66
c0.43,0,0.75,0.32,0.75,0.74v13.23c0,0.42-0.32,0.73-0.75,0.73h-3.23c-0.43,0-0.75-0.31-0.75-0.73v-7.66H376.39z"/>
</g>
<line class="st1" x1="2.46" y1="46.06" x2="383.05" y2="46.06"/>
<line class="st1" x1="2.38" y1="45.35" x2="382.97" y2="45.35"/>
</svg>