<?xml version="1.0" encoding="utf-8"?>
<svg version="1.1" id="Слой_1" xmlns="http://www.w3.org/2000/svg"
	xmlns:xlink="http://www.w3.org/1999/xlink" x="0px" y="0px"
	viewBox="0 0 385.51 56.69" style="enable-background:new 0 0 385.51 56.69;" xml:space="preserve">
	<style type="text/css">
		.logo_color{fill:#008D36;}
	</style>
	<g>
		<path class="logo_color" d="M44.83,43.1c0,0.95-0.83,1.66-1.93,1.66h-8.27c-1.1,0-1.93-0.71-1.93-1.66v-23.5H16.71v23.5
			c0,0.95-0.83,1.66-1.93,1.66H6.51c-1.1,0-1.93-0.71-1.93-1.66V13.18c0-0.95,0.83-1.66,1.93-1.66H42.9c1.1,0,1.93,0.71,1.93,1.66
			V43.1z"/>
		<path class="logo_color" d="M90.58,17.93c0,0.95-0.83,1.66-1.93,1.66H65.22v4.27h17.37c1.1,0,1.93,0.71,1.93,1.66v4.75
			c0,0.95-0.83,1.66-1.93,1.66H65.22v4.75h23.43c1.1,0,1.93,0.71,1.93,1.66v4.75c0,0.95-0.83,1.66-1.93,1.66H55.02
			c-1.1,0-1.93-0.71-1.93-1.66V13.18c0-0.95,0.83-1.66,1.93-1.66h33.63c1.1,0,1.93,0.71,1.93,1.66V17.93z"/>
		<path class="logo_color" d="M117.86,35.74h-9.1v7.36c0,0.95-0.83,1.66-1.93,1.66h-8.27c-1.1,0-1.93-0.71-1.93-1.66V13.18
			c0-0.95,0.83-1.66,1.93-1.66h19.3c12.96,0,19.02,5.22,19.02,12.11C136.88,30.52,130.82,35.74,117.86,35.74z M117.86,28.14
			c4.13,0,6.34-1.9,6.34-4.51c0-2.61-2.21-4.51-6.34-4.51h-9.1v9.02H117.86z"/>
		<path class="logo_color" d="M179.88,17.93c0,0.95-0.83,1.66-1.93,1.66h-23.43v4.27h17.37c1.1,0,1.93,0.71,1.93,1.66v4.75
			c0,0.95-0.83,1.66-1.93,1.66h-17.37v4.75h23.43c1.1,0,1.93,0.71,1.93,1.66v4.75c0,0.95-0.83,1.66-1.93,1.66h-33.63
			c-1.1,0-1.93-0.71-1.93-1.66V13.18c0-0.95,0.83-1.66,1.93-1.66h33.63c1.1,0,1.93,0.71,1.93,1.66V17.93z"/>
		<path class="logo_color" d="M223.43,17.93c0,0.95-0.83,1.66-1.93,1.66h-23.43v4.27h17.37c1.1,0,1.93,0.71,1.93,1.66v4.75
			c0,0.95-0.83,1.66-1.93,1.66h-17.37v4.75h23.43c1.1,0,1.93,0.71,1.93,1.66v4.75c0,0.95-0.83,1.66-1.93,1.66h-33.63
			c-1.1,0-1.93-0.71-1.93-1.66V13.18c0-0.95,0.83-1.66,1.93-1.66h33.63c1.1,0,1.93,0.71,1.93,1.66V17.93z"/>
		<path class="logo_color" d="M226.73,35.26c0-1.19,0.83-1.9,2.21-1.9h6.89c1.65,0,2.59,0.85,3.31,1.9c0.83,1.19,2.76,2.61,7.99,2.61
			c5.51,0,7.44-1.66,7.44-3.09c0-1.66-1.65-3.09-4.41-3.09h-7.17c-1.1,0-1.93-0.71-1.93-1.66v-4.75c0-0.95,0.83-1.66,1.93-1.66h6.62
			c2.48,0,3.86-1.19,3.86-2.61c0-1.19-1.65-2.61-6.34-2.61c-4.41,0-6.06,1.42-6.62,2.14c-0.88,1.19-1.65,1.9-3.31,1.9h-6.89
			c-1.38,0-2.21-0.71-2.21-1.9c0-4.75,6.06-9.97,19.02-9.97c13.51,0,19.02,4.75,19.02,9.73c0,5.22-6.89,6.65-6.89,6.65v0.48
			c0,0,7.99,1.42,7.99,8.07c0,5.22-5.79,10.21-20.12,10.21S226.73,40.49,226.73,35.26z"/>
		<path class="logo_color" d="M318.52,36.69c1.1,0,1.93,0.71,1.93,1.66v4.75c0,0.95-0.83,1.66-1.93,1.66h-46.86c-1.1,0-1.93-0.71-1.93-1.66
			v-4.75c0-0.95,0.83-1.66,1.93-1.66h3.03l3.58-12.82c2.15-7.6,7.72-12.35,18.74-12.35H313c1.1,0,1.93,0.71,1.93,1.66v23.5H318.52z
			M302.8,19.59h-5.79c-3.58,0-5.62,1.66-6.34,4.27l-3.58,12.82h15.71V19.59z"/>
		<path class="logo_color" d="M345.52,44.76h-18.19c-1.1,0-1.93-0.71-1.93-1.66V13.18c0-0.95,0.83-1.66,1.93-1.66h8.27
			c1.1,0,1.93,0.71,1.93,1.66v8.31h7.99c12.68,0,18.47,4.99,18.47,11.63C363.99,39.78,358.2,44.76,345.52,44.76z M345.52,29.09h-7.99
			v8.07h7.99c3.86,0,5.79-1.66,5.79-4.04S349.38,29.09,345.52,29.09z M381.08,43.1c0,0.95-0.83,1.66-1.93,1.66h-8.27
			c-1.1,0-1.93-0.71-1.93-1.66V13.18c0-0.95,0.83-1.66,1.93-1.66h8.27c1.1,0,1.93,0.71,1.93,1.66V43.1z"/>
	</g>
</svg>